<svg width="44" height="43" viewBox="0 0 44 43" fill="none" xmlns="http://www.w3.org/2000/svg">
<path fill-rule="evenodd" clip-rule="evenodd" d="M0.875 21.1086C0.875 9.45066 10.5009 0 22.375 0C34.2491 0 43.875 9.45066 43.875 21.1086C43.875 32.7666 34.2491 42.2173 22.375 42.2173C10.5009 42.2173 0.875 32.7666 0.875 21.1086ZM31.2391 9.14708H14.2275C12.793 9.14708 11.625 10.2799 11.625 11.6836V28.3313C11.625 29.735 12.793 30.8679 14.2275 30.8679H28.6239L27.9511 28.5899L29.5761 30.0552L31.1122 31.4343L33.8417 33.7738V11.6836C33.8417 10.2799 32.6737 9.14708 31.2391 9.14708Z" fill="black"/>
<path fill-rule="evenodd" clip-rule="evenodd" d="M26.3388 25.2283C26.3388 25.2283 25.8818 24.6989 25.5009 24.231C27.164 23.7754 27.7987 22.7657 27.7987 22.7657C27.2782 23.0981 26.7831 23.3321 26.3388 23.4922C25.704 23.7507 25.0946 23.9231 24.498 24.0216C23.2792 24.2433 22.162 24.1817 21.2099 24.0093C20.4863 23.8739 19.8642 23.6769 19.3437 23.4798C19.0517 23.369 18.7343 23.2336 18.417 23.0612C18.3789 23.0366 18.3408 23.0243 18.3027 22.9996C18.2773 22.9873 18.2646 22.975 18.2519 22.9627C18.0234 22.8396 17.8964 22.7534 17.8964 22.7534C17.8964 22.7534 18.5058 23.7384 20.1181 24.2063C19.7373 24.6742 19.2675 25.2283 19.2675 25.2283C16.4619 25.1422 15.3955 23.3567 15.3955 23.3567C15.3955 19.3918 17.2236 16.178 17.2236 16.178C19.0517 14.8482 20.791 14.8851 20.791 14.8851L20.9179 15.0329C18.6328 15.6732 17.5791 16.6459 17.5791 16.6459C17.5791 16.6459 17.8584 16.4982 18.3281 16.2888C19.6865 15.7101 20.7656 15.55 21.2099 15.5131C21.2861 15.5008 21.3496 15.4885 21.4257 15.4885C22.2001 15.39 23.0761 15.3653 23.9902 15.4638C25.1962 15.5993 26.4911 15.9441 27.8114 16.6459C27.8114 16.6459 26.8085 15.7224 24.6503 15.0821L24.828 14.8851C24.828 14.8851 26.5673 14.8482 28.3954 16.178C28.3954 16.178 30.2235 19.3918 30.2235 23.3567C30.2235 23.3567 29.1444 25.1422 26.3388 25.2283ZM20.793 19.7014C20.0751 19.7014 19.5083 20.3353 19.5083 21.1086C19.5083 21.882 20.0877 22.5159 20.793 22.5159C21.511 22.5159 22.0778 21.882 22.0778 21.1086C22.0903 20.3353 21.511 19.7014 20.793 19.7014ZM25.3903 19.7014C24.6724 19.7014 24.1056 20.3353 24.1056 21.1086C24.1056 21.882 24.685 22.5159 25.3903 22.5159C26.1082 22.5159 26.675 21.882 26.675 21.1086C26.675 20.3353 26.1082 19.7014 25.3903 19.7014Z" fill="black"/>
</svg>
