<svg width="43" height="43" viewBox="0 0 43 43" fill="none" xmlns="http://www.w3.org/2000/svg">
<path d="M43 21.5C43 33.3734 33.3734 43 21.5 43C9.62655 43 0 33.3734 0 21.5C0 9.62655 9.62655 0 21.5 0C33.3759 0 43 9.62655 43 21.5Z" fill="black"/>
<path d="M10.6074 22.2227L10.7001 22.0769L16.2932 13.3274C16.3749 13.1992 16.5671 13.2125 16.6289 13.3516C17.5633 15.4457 18.3695 18.05 17.9918 19.6714C17.8305 20.3385 17.3888 21.2419 16.8918 22.0769C16.8277 22.1984 16.757 22.3177 16.6819 22.4326C16.6466 22.4855 16.5869 22.5165 16.5229 22.5165H10.7708C10.6162 22.5165 10.5257 22.3486 10.6074 22.2227Z" fill="#FF7373"/>
<path d="M35.5371 23.8483V25.2333C35.5371 25.3128 35.4886 25.3835 35.4179 25.4144C34.9849 25.6 33.5027 26.2804 32.8864 27.1374C31.3137 29.3264 30.112 32.4565 27.426 32.4565H16.2201C12.2484 32.4565 9.03003 29.2271 9.03003 25.2421V25.114C9.03003 25.008 9.11617 24.9218 9.22224 24.9218H15.469C15.5927 24.9218 15.6833 25.0367 15.6723 25.1582C15.6281 25.5647 15.7032 25.9799 15.8954 26.3577C16.2665 27.1109 17.0352 27.5814 17.8658 27.5814H20.9582V25.167H17.9011C17.7443 25.167 17.6515 24.9859 17.7421 24.8578C17.7752 24.807 17.8127 24.754 17.8525 24.6943C18.1419 24.2835 18.5549 23.6451 18.9658 22.9183C19.2463 22.428 19.518 21.9044 19.7367 21.3787C19.7809 21.2838 19.8162 21.1866 19.8516 21.0916C19.9112 20.9237 19.9731 20.7669 20.0172 20.61C20.0614 20.4775 20.0968 20.3383 20.1321 20.208C20.2359 19.7618 20.2801 19.2891 20.2801 18.7987C20.2801 18.6065 20.2713 18.4055 20.2536 18.2133C20.2448 18.0035 20.2182 17.7936 20.1917 17.5838C20.1741 17.3982 20.1409 17.2149 20.1056 17.0227C20.0614 16.7422 19.9996 16.4639 19.9289 16.1833L19.9046 16.0773C19.8516 15.8852 19.8074 15.7018 19.7455 15.5096C19.5711 14.9066 19.37 14.319 19.158 13.769C19.0807 13.5503 18.9923 13.3405 18.9039 13.1306C18.7736 12.8147 18.6411 12.5276 18.5196 12.2559C18.4577 12.1322 18.4047 12.0195 18.3517 11.9046C18.2921 11.7743 18.2302 11.644 18.1684 11.5203C18.1242 11.4253 18.0734 11.337 18.0381 11.2486L17.6603 10.5506C17.6073 10.4556 17.6957 10.3429 17.7995 10.3716L20.163 11.0123H20.1697C20.1741 11.0123 20.1763 11.0145 20.1785 11.0145L20.49 11.1006L20.8323 11.1978L20.9582 11.2331V9.82827C20.9582 9.15012 21.5017 8.6001 22.1732 8.6001C22.5089 8.6001 22.8137 8.73703 23.0324 8.96015C23.2511 9.18327 23.3881 9.4881 23.3881 9.82827V11.9135L23.6399 11.9841C23.6598 11.9908 23.6797 11.9996 23.6973 12.0129C23.7592 12.0593 23.8475 12.1278 23.9602 12.2117C24.0485 12.2824 24.1435 12.3685 24.2584 12.4569C24.4859 12.6402 24.7576 12.8766 25.0558 13.1483C25.1353 13.2168 25.2127 13.2874 25.2833 13.3581C25.6677 13.716 26.0984 14.1357 26.5093 14.5996C26.6242 14.7298 26.7368 14.8624 26.8517 15.0016C26.9665 15.1429 27.088 15.2821 27.194 15.4213C27.3332 15.6068 27.4834 15.799 27.6137 16C27.6756 16.095 27.7463 16.1922 27.8059 16.2872C27.9738 16.5412 28.1218 16.8041 28.2632 17.0669C28.3228 17.1884 28.3847 17.3209 28.4377 17.4513C28.5945 17.8025 28.7182 18.1603 28.7977 18.5182C28.822 18.5955 28.8397 18.6794 28.8485 18.7545V18.7722C28.875 18.8782 28.8838 18.9909 28.8927 19.1058C28.928 19.4724 28.9104 19.8391 28.8309 20.208C28.7977 20.3649 28.7536 20.5128 28.7005 20.6697C28.6475 20.8199 28.5945 20.9767 28.526 21.1247C28.3935 21.4317 28.2367 21.7388 28.0511 22.0259C27.9915 22.132 27.9208 22.2446 27.8501 22.3506C27.7728 22.4633 27.6933 22.5694 27.6226 22.6732C27.5254 22.8057 27.4216 22.9449 27.3155 23.0685C27.2206 23.1989 27.1233 23.3292 27.0173 23.4441C26.8693 23.6186 26.728 23.7843 26.58 23.9433C26.4916 24.0471 26.3966 24.1532 26.2994 24.2481C26.2044 24.3542 26.1072 24.4491 26.0189 24.5375C25.8709 24.6855 25.7472 24.8003 25.6434 24.8953L25.4004 25.1185C25.3651 25.1494 25.3187 25.167 25.2701 25.167H23.3881V27.5814H25.756C26.2862 27.5814 26.7898 27.3936 27.1962 27.0491C27.3354 26.9276 27.9429 26.4018 28.6608 25.6088C28.685 25.5823 28.716 25.5625 28.7513 25.5536L35.2919 23.6628C35.4134 23.6274 35.5371 23.7202 35.5371 23.8483Z" fill="#FF7373"/>
</svg>
