<svg width="43" height="44" viewBox="0 0 43 44" fill="none" xmlns="http://www.w3.org/2000/svg">
<g clip-path="url(#clip0_640_169)">
<path d="M21.5 0.119995C9.6277 0.119995 0 9.74769 0 21.62C0 33.4923 9.6277 43.12 21.5 43.12C33.3723 43.12 43 33.4923 43 21.62C43 9.74769 33.3766 0.119995 21.5 0.119995ZM10.6081 22.3424L10.6984 22.1962L16.2927 13.4457C16.3744 13.321 16.5679 13.3339 16.6281 13.4715C17.5612 15.5656 18.3696 18.1714 17.9912 19.7925C17.8321 20.459 17.3892 21.362 16.8904 22.1962C16.8259 22.3166 16.7571 22.437 16.6797 22.5531C16.6453 22.6047 16.5851 22.6348 16.5206 22.6348H10.7715C10.6167 22.6348 10.5264 22.4671 10.6081 22.3424ZM35.5352 25.3524C35.5352 25.4341 35.4879 25.5029 35.4191 25.533C34.9848 25.7179 33.5013 26.4016 32.8864 27.2573C31.3126 29.446 30.1129 32.5764 27.4254 32.5764H16.2196C12.2464 32.5764 9.03 29.3471 9.03 25.361V25.232C9.03 25.1288 9.116 25.0428 9.2235 25.0428H15.4671C15.5918 25.0428 15.6821 25.1546 15.6735 25.2793C15.6262 25.6835 15.7036 26.1006 15.8971 26.479C16.2669 27.2315 17.0366 27.7002 17.8665 27.7002H20.9582V25.2879H17.9009C17.7461 25.2879 17.6515 25.1073 17.7418 24.9783C17.7762 24.9267 17.8106 24.8751 17.8536 24.8149C18.1417 24.4021 18.5545 23.7657 18.9673 23.039C19.2468 22.5488 19.5177 22.0242 19.737 21.4996C19.78 21.405 19.8144 21.3061 19.8531 21.2115C19.9133 21.0438 19.9735 20.8847 20.0165 20.7299C20.0595 20.5966 20.0982 20.459 20.1326 20.33C20.2358 19.8828 20.2788 19.4098 20.2788 18.9196C20.2788 18.7261 20.2702 18.524 20.253 18.3348C20.2444 18.1241 20.2186 17.9134 20.1928 17.7027C20.1756 17.5178 20.1412 17.3329 20.1068 17.1437C20.0595 16.8642 19.9993 16.5847 19.9305 16.3052L19.9047 16.1977C19.8531 16.0042 19.8058 15.8236 19.7456 15.6301C19.5693 15.0281 19.3715 14.439 19.1565 13.8886C19.0791 13.6693 18.9931 13.4586 18.9028 13.2522C18.7738 12.934 18.6405 12.6459 18.5201 12.375C18.4556 12.2503 18.404 12.1385 18.3524 12.0224C18.2922 11.8934 18.232 11.7644 18.1675 11.6397C18.1245 11.5451 18.0729 11.4548 18.0385 11.3688L17.6601 10.6722C17.6085 10.5776 17.6945 10.4615 17.7977 10.4916L20.1627 11.1323H20.1713C20.1756 11.1323 20.1756 11.1323 20.1799 11.1323L20.4895 11.2226L20.8335 11.3172L20.9582 11.3516V9.94979C20.9582 9.27039 21.5 8.72 22.1751 8.72C22.5105 8.72 22.8158 8.8576 23.0308 9.0812C23.2501 9.3048 23.3877 9.61009 23.3877 9.94979V12.0353L23.6414 12.1041C23.6586 12.1127 23.6801 12.1213 23.6973 12.1342C23.7575 12.1772 23.8478 12.246 23.9596 12.332C24.0499 12.4008 24.1445 12.4868 24.2563 12.5771C24.4842 12.762 24.7594 12.9985 25.0561 13.2694C25.1335 13.3382 25.2109 13.407 25.284 13.4801C25.6667 13.837 26.0967 14.2541 26.5095 14.7185C26.6256 14.8518 26.7374 14.9808 26.8535 15.1227C26.9653 15.2646 27.09 15.4022 27.1932 15.5398C27.3351 15.7247 27.4813 15.9182 27.6146 16.1203C27.6748 16.2149 27.7479 16.3138 27.8038 16.4084C27.9758 16.6621 28.122 16.9244 28.2639 17.1867C28.3241 17.3071 28.3843 17.4404 28.4359 17.5694C28.595 17.922 28.7197 18.2789 28.7971 18.6401C28.8229 18.7175 28.8401 18.7992 28.8487 18.8766V18.8938C28.8745 18.997 28.8831 19.1088 28.8917 19.2249C28.9261 19.5904 28.9089 19.9602 28.8315 20.33C28.7971 20.4848 28.7541 20.631 28.7025 20.7901C28.6466 20.9406 28.595 21.0954 28.5262 21.2459C28.3929 21.5512 28.2381 21.8608 28.0532 22.1446C27.993 22.2521 27.9199 22.3639 27.8511 22.4714C27.7737 22.5832 27.692 22.6907 27.6232 22.7939C27.5243 22.9272 27.4211 23.0648 27.3136 23.1895C27.219 23.3185 27.1244 23.4475 27.0169 23.5636C26.8707 23.7399 26.7288 23.9033 26.5783 24.0624C26.4923 24.1656 26.3977 24.2731 26.2988 24.3677C26.2042 24.4752 26.1053 24.5698 26.0193 24.6558C25.8688 24.8063 25.7484 24.9181 25.6452 25.017L25.4001 25.2363C25.3657 25.2707 25.3184 25.2879 25.2711 25.2879H23.3877V27.7002H25.757C26.2859 27.7002 26.789 27.5153 27.1975 27.167C27.3351 27.0466 27.9414 26.522 28.6595 25.7308C28.6853 25.7007 28.7154 25.6835 28.7498 25.6749L35.2901 23.7829C35.4148 23.7485 35.5352 23.8388 35.5352 23.9678V25.3524Z" fill="black"/>
</g>
<defs>
<clipPath id="clip0_640_169">
<rect width="43" height="43" fill="white" transform="translate(0 0.119995)"/>
</clipPath>
</defs>
</svg>
