<svg width="44" height="43" viewBox="0 0 44 43" fill="none" xmlns="http://www.w3.org/2000/svg">
<path fill-rule="evenodd" clip-rule="evenodd" d="M0.75 21.1086C0.75 9.45066 10.3759 0 22.25 0C34.1241 0 43.75 9.45066 43.75 21.1086C43.75 32.7666 34.1241 42.2173 22.25 42.2173C10.3759 42.2173 0.75 32.7666 0.75 21.1086ZM21.6061 17.1574L21.6512 17.8878L20.8993 17.7983C18.1622 17.4555 15.771 16.2928 13.7408 14.3401L12.7482 13.3712L12.4926 14.0867C11.9512 15.6816 12.2971 17.3661 13.425 18.4989C14.0265 19.125 13.8912 19.2144 12.8535 18.8418C12.4926 18.7225 12.1767 18.6331 12.1467 18.6778C12.0414 18.7822 12.4023 20.1386 12.6881 20.6752C13.0791 21.4206 13.8761 22.151 14.7484 22.5832L15.4853 22.9261L14.613 22.941C13.7709 22.941 13.7408 22.9559 13.831 23.2689C14.1318 24.2378 15.3199 25.2664 16.6433 25.7136L17.5757 26.0266L16.7636 26.5036C15.5605 27.1893 14.1468 27.5768 12.7332 27.6067C12.0564 27.6216 11.5 27.6812 11.5 27.7259C11.5 27.875 13.3347 28.7097 14.4025 29.0377C17.6058 30.0066 21.4106 29.5892 24.2679 27.9346C26.2982 26.757 28.3284 24.4167 29.2759 22.151C29.7872 20.9436 30.2985 18.7374 30.2985 17.6791C30.2985 16.9934 30.3436 16.904 31.1858 16.0841C31.6821 15.6071 32.1483 15.0854 32.2385 14.9363C32.3889 14.6531 32.3739 14.6531 31.6069 14.9065C30.3286 15.3537 30.1481 15.2941 30.7797 14.6233C31.246 14.1463 31.8024 13.2817 31.8024 13.0283C31.8024 12.9836 31.5768 13.0581 31.3211 13.1923C31.0504 13.3414 30.4489 13.565 29.9977 13.6991L29.1856 13.9525L28.4487 13.4606C28.0427 13.1923 27.4712 12.8942 27.1704 12.8047C26.4035 12.5961 25.2304 12.6259 24.5386 12.8644C22.6588 13.5351 21.4707 15.2643 21.6061 17.1574Z" fill="black"/>
</svg>
